<svg width="167" height="104" viewBox="0 0 167 104" fill="none" xmlns="http://www.w3.org/2000/svg">
<path d="M76.2043 7.7695C78.7253 5.23569 84.6443 5.23569 87.1653 7.7695C89.2782 9.89321 93.9594 10.3124 96.9476 8.64536C100.513 6.65651 106.192 7.69504 107.465 10.5685C108.531 12.977 112.833 14.2004 116.454 13.1252C120.775 11.8424 125.755 13.8353 125.675 16.8156C125.609 19.3136 129.183 21.2423 133.144 20.846C137.871 20.3732 141.747 23.159 140.322 26.0048C139.129 28.39 141.685 30.8676 145.665 31.1823C150.414 31.5578 152.873 34.9109 150.219 37.3915C147.995 39.4707 149.327 42.2966 153.003 43.2968C157.389 44.4902 158.231 48.1388 154.563 50.0533C151.488 51.658 151.488 54.6032 154.563 56.2079C158.231 58.1225 157.389 61.771 153.003 62.9644C149.327 63.9646 147.995 66.7906 150.219 68.8697C152.873 71.3503 150.414 74.7034 145.665 75.0788C141.685 75.3934 139.129 77.8713 140.322 80.2565C141.747 83.1022 137.871 85.8883 133.144 85.4151C129.183 85.0187 125.609 86.9479 125.675 89.4454C125.755 92.426 120.775 94.4186 116.454 93.1359C112.833 92.0605 108.531 93.2844 107.465 95.693C106.192 98.5665 100.513 99.605 96.9476 97.6155C93.9594 95.9485 89.2782 96.3682 87.1653 98.4919C84.6443 101.026 78.7253 101.026 76.2043 98.4919C74.0914 96.3682 69.4102 95.9485 66.422 97.6155C62.8569 99.605 57.1775 98.5665 55.9051 95.693C54.8384 93.2844 50.5365 92.0605 46.9153 93.1359C42.5948 94.4186 37.6153 92.426 37.6943 89.4454C37.7605 86.9479 34.1864 85.0187 30.2253 85.4151C25.4996 85.8883 21.6234 83.1022 23.0475 80.2565C24.241 77.8713 21.6841 75.3934 17.7043 75.0788C12.9561 74.7034 10.4972 71.3503 13.151 68.8697C15.3753 66.7906 14.0429 63.9646 10.3666 62.9644C5.9806 61.771 5.13823 58.1225 8.80673 56.2079C11.8816 54.6032 11.8816 51.658 8.80673 50.0533C5.13823 48.1388 5.9806 44.4902 10.3666 43.2968C14.0429 42.2966 15.3753 39.4707 13.151 37.3915C10.4972 34.9109 12.9561 31.5578 17.7043 31.1823C21.6841 30.8676 24.241 28.39 23.0475 26.0048C21.6234 23.159 25.4996 20.3732 30.2253 20.846C34.1864 21.2423 37.7605 19.3136 37.6943 16.8156C37.6153 13.8353 42.5948 11.8424 46.9153 13.1252C50.5365 14.2004 54.8384 12.977 55.9051 10.5685C57.1775 7.69504 62.8569 6.65651 66.422 8.64536C69.4102 10.3124 74.0914 9.89321 76.2043 7.7695Z" fill="#82B4B4"/>
<path d="M79.8347 5.50826C82.3557 2.97446 88.2747 2.97446 90.7957 5.50826C92.9086 7.63198 97.5898 8.05115 100.578 6.38415C104.143 4.39528 109.822 5.4338 111.095 8.30723C112.162 10.7157 116.463 11.9392 120.085 10.864C124.405 9.58115 129.385 11.574 129.305 14.5544C129.24 17.0524 132.813 18.9811 136.774 18.5848C141.501 18.1119 145.377 20.8978 143.953 23.7435C142.76 26.1288 145.315 28.6064 149.296 28.9211C154.044 29.2966 156.503 32.6496 153.849 35.1303C151.625 37.2094 152.957 40.0354 156.634 41.0356C161.019 42.2289 161.862 45.8775 158.194 47.792C155.119 49.3968 155.119 52.342 158.194 53.9467C161.862 55.8612 161.019 59.5098 156.634 60.7032C152.957 61.7034 151.625 64.5293 153.849 66.6085C156.503 69.0891 154.044 72.4421 149.296 72.8176C145.315 73.1324 142.76 75.6101 143.953 77.9953C145.377 80.841 141.501 83.6271 136.774 83.1538C132.813 82.7574 129.24 84.6867 129.305 87.1842C129.385 90.1648 124.405 92.1574 120.085 90.8747C116.463 89.7993 112.162 91.0232 111.095 93.4318C109.822 96.3053 104.143 97.3438 100.578 95.3542C97.5898 93.6872 92.9086 94.107 90.7957 96.2307C88.2747 98.7644 82.3557 98.7644 79.8347 96.2307C77.7218 94.107 73.0406 93.6872 70.0524 95.3542C66.4873 97.3438 60.808 96.3053 59.5355 93.4318C58.4689 91.0232 54.1669 89.7993 50.5457 90.8747C46.2252 92.1574 41.2457 90.1648 41.3248 87.1842C41.391 84.6867 37.8168 82.7574 33.8557 83.1538C29.13 83.6271 25.2538 80.841 26.6779 77.9953C27.8715 75.6101 25.3145 73.1324 21.3347 72.8176C16.5865 72.4421 14.1276 69.0891 16.7814 66.6085C19.0057 64.5293 17.6733 61.7034 13.997 60.7032C9.61103 59.5098 8.76866 55.8612 12.4371 53.9467C15.512 52.342 15.512 49.3968 12.4371 47.7921C8.76866 45.8775 9.61103 42.2289 13.997 41.0356C17.6733 40.0354 19.0057 37.2094 16.7814 35.1303C14.1276 32.6496 16.5865 29.2966 21.3347 28.9211C25.3145 28.6064 27.8715 26.1288 26.6779 23.7435C25.2538 20.8978 29.13 18.1119 33.8557 18.5848C37.8168 18.9811 41.391 17.0524 41.3248 14.5544C41.2457 11.574 46.2252 9.58115 50.5457 10.864C54.1669 11.9392 58.4689 10.7157 59.5355 8.30723C60.808 5.43379 66.4873 4.39528 70.0524 6.38415C73.0406 8.05115 77.7218 7.63198 79.8347 5.50826Z" fill="white"/>
</svg>
