<svg width="166" height="104" viewBox="0 0 166 104" fill="none" xmlns="http://www.w3.org/2000/svg">
<path d="M75.7479 7.7695C78.2538 5.23569 84.1374 5.23569 86.6433 7.7695C88.7436 9.89321 93.3967 10.3124 96.3671 8.64536C99.9108 6.65651 105.556 7.69504 106.821 10.5685C107.881 12.977 112.157 14.2004 115.757 13.1252C120.052 11.8424 125.002 13.8353 124.922 16.8156C124.857 19.3136 128.409 21.2423 132.346 20.846C137.045 20.3732 140.898 23.159 139.482 26.0048C138.296 28.39 140.837 30.8676 144.793 31.1823C149.513 31.5578 151.957 34.9109 149.319 37.3915C147.108 39.4707 148.433 42.2966 152.087 43.2968C156.447 44.4902 157.284 48.1388 153.638 50.0533C150.581 51.658 150.581 54.6032 153.638 56.2079C157.284 58.1225 156.447 61.771 152.087 62.9644C148.433 63.9646 147.108 66.7906 149.319 68.8697C151.957 71.3503 149.513 74.7034 144.793 75.0788C140.837 75.3934 138.296 77.8713 139.482 80.2565C140.898 83.1022 137.045 85.8883 132.346 85.4151C128.409 85.0187 124.857 86.9479 124.922 89.4454C125.002 92.426 120.052 94.4186 115.757 93.1359C112.157 92.0605 107.881 93.2844 106.821 95.693C105.556 98.5665 99.9108 99.605 96.3671 97.6155C93.3967 95.9485 88.7436 96.3682 86.6433 98.4919C84.1374 101.026 78.2538 101.026 75.7479 98.4919C73.6477 96.3682 68.9945 95.9485 66.0242 97.6155C62.4804 99.605 56.8351 98.5665 55.5703 95.693C54.51 93.2844 50.2339 92.0605 46.6343 93.1359C42.3397 94.4186 37.39 92.426 37.4686 89.4454C37.5344 86.9479 33.9816 85.0187 30.0443 85.4151C25.3468 85.8883 21.4938 83.1022 22.9094 80.2565C24.0958 77.8713 21.5542 75.3934 17.5983 75.0788C12.8784 74.7034 10.4343 71.3503 13.0722 68.8697C15.2832 66.7906 13.9588 63.9646 10.3045 62.9644C5.94476 61.771 5.10743 58.1225 8.75397 56.2079C11.8104 54.6032 11.8104 51.658 8.75397 50.0533C5.10743 48.1388 5.94476 44.4902 10.3045 43.2968C13.9588 42.2966 15.2832 39.4707 13.0722 37.3915C10.4343 34.9109 12.8784 31.5578 17.5983 31.1823C21.5542 30.8676 24.0958 28.39 22.9094 26.0048C21.4938 23.159 25.3468 20.3732 30.0443 20.846C33.9816 21.2423 37.5344 19.3136 37.4686 16.8156C37.39 13.8353 42.3397 11.8424 46.6343 13.1252C50.2339 14.2004 54.51 12.977 55.5703 10.5685C56.8351 7.69504 62.4804 6.65651 66.0242 8.64536C68.9945 10.3124 73.6477 9.89321 75.7479 7.7695Z" fill="#BBBBBB"/>
<path d="M79.3567 5.50826C81.8625 2.97446 87.7461 2.97446 90.252 5.50826C92.3523 7.63198 97.0054 8.05115 99.9758 6.38415C103.52 4.39528 109.165 5.4338 110.43 8.30723C111.49 10.7157 115.766 11.9392 119.366 10.864C123.66 9.58115 128.61 11.574 128.531 14.5544C128.466 17.0524 132.018 18.9811 135.955 18.5848C140.654 18.1119 144.507 20.8978 143.091 23.7435C141.905 26.1288 144.445 28.6064 148.402 28.9211C153.122 29.2966 155.566 32.6496 152.928 35.1303C150.717 37.2094 152.042 40.0354 155.696 41.0356C160.055 42.2289 160.892 45.8775 157.246 47.792C154.19 49.3968 154.19 52.342 157.246 53.9467C160.892 55.8612 160.055 59.5098 155.696 60.7032C152.042 61.7034 150.717 64.5293 152.928 66.6085C155.566 69.0891 153.122 72.4421 148.402 72.8176C144.445 73.1324 141.905 75.6101 143.091 77.9953C144.507 80.841 140.654 83.6271 135.955 83.1538C132.018 82.7574 128.466 84.6867 128.531 87.1842C128.61 90.1648 123.66 92.1574 119.366 90.8747C115.766 89.7993 111.49 91.0232 110.43 93.4318C109.165 96.3053 103.52 97.3438 99.9758 95.3542C97.0054 93.6872 92.3523 94.107 90.252 96.2307C87.7461 98.7644 81.8625 98.7644 79.3567 96.2307C77.2564 94.107 72.6032 93.6872 69.6329 95.3542C66.0892 97.3438 60.4438 96.3053 59.179 93.4318C58.1188 91.0232 53.8426 89.7993 50.243 90.8747C45.9484 92.1574 40.9987 90.1648 41.0773 87.1842C41.1431 84.6867 37.5903 82.7574 33.653 83.1538C28.9556 83.6271 25.1026 80.841 26.5181 77.9953C27.7045 75.6101 25.1629 73.1324 21.207 72.8176C16.4872 72.4421 14.043 69.0891 16.6809 66.6085C18.8919 64.5293 17.5675 61.7034 13.9132 60.7032C9.55347 59.5098 8.71614 55.8612 12.3627 53.9467C15.4191 52.342 15.4191 49.3968 12.3627 47.7921C8.71614 45.8775 9.55347 42.2289 13.9132 41.0356C17.5675 40.0354 18.8919 37.2094 16.6809 35.1303C14.043 32.6496 16.4872 29.2966 21.207 28.9211C25.1629 28.6064 27.7045 26.1288 26.5181 23.7435C25.1026 20.8978 28.9556 18.1119 33.653 18.5848C37.5903 18.9811 41.1431 17.0524 41.0773 14.5544C40.9987 11.574 45.9484 9.58115 50.243 10.864C53.8426 11.9392 58.1188 10.7157 59.179 8.30723C60.4438 5.43379 66.0892 4.39528 69.6329 6.38415C72.6032 8.05115 77.2564 7.63198 79.3567 5.50826Z" fill="#292E36"/>
</svg>
