<svg width="200" height="111" viewBox="0 0 200 111" fill="none" xmlns="http://www.w3.org/2000/svg">
<path d="M57.5 53.16C57.98 53.08 58.34 53.24 58.58 53.64C58.86 54 58.92 54.4 58.76 54.84C58.64 55.24 58.34 55.48 57.86 55.56C56.62 55.72 55.24 55.94 53.72 56.22C51.64 63.34 48.38 69.9 43.94 75.9C39.5 81.9 34.14 86.9 27.86 90.9C26.58 91.74 25.56 92.38 24.8 92.82C24.04 93.3 22.88 93.9601 21.32 94.8C19.8 95.68 18.44 96.34 17.24 96.78C16.04 97.22 14.72 97.64 13.28 98.04C11.88 98.48 10.54 98.66 9.26003 98.58C7.98003 98.54 6.82002 98.26 5.78002 97.74C4.22002 96.98 3.16002 95.92 2.60002 94.56C2.04002 93.24 1.96002 91.82 2.36002 90.3C2.72002 88.7801 3.24002 87.34 3.92002 85.98C4.56002 84.62 5.34002 83.36 6.26002 82.2C11.74 75.04 18.44 69.0601 26.36 64.26C34.28 59.42 42.76 56.06 51.8 54.18C52.72 50.74 53.36 47.3 53.72 43.86C54.08 40.38 54.1 36.84 53.78 33.24C53.5 29.64 52.86 26.26 51.86 23.1C50.86 19.94 49.34 16.98 47.3 14.22C45.3 11.46 42.88 9.18005 40.04 7.38005C37.88 6.02005 35.54 5.00005 33.02 4.32005C30.54 3.60005 28.04 3.24005 25.52 3.24005C23.04 3.24005 20.56 3.68005 18.08 4.56005C15.64 5.40005 13.44 6.64005 11.48 8.28005C7.64002 11.52 5.12002 15.62 3.92002 20.58C2.72002 25.54 3.10002 30.3 5.06002 34.86C5.26002 35.34 5.22002 35.76 4.94002 36.12C4.66002 36.44 4.30002 36.6 3.86002 36.6C3.42002 36.56 3.10002 36.32 2.90002 35.88C1.66002 33.04 0.980024 30.12 0.860024 27.12C0.740024 24.12 1.10002 21.32 1.94002 18.72C2.78002 16.08 4.06002 13.6 5.78002 11.28C7.50002 8.92004 9.48003 6.94004 11.72 5.34005C14 3.74005 16.58 2.54005 19.46 1.74005C22.34 0.900046 25.3 0.620045 28.34 0.900043C32.22 1.26005 35.74 2.28005 38.9 3.96005C42.1 5.64005 44.76 7.76005 46.88 10.32C49 12.84 50.78 15.74 52.22 19.02C53.7 22.3 54.74 25.7 55.34 29.22C55.98 32.7 56.28 36.26 56.24 39.9C56.16 44.46 55.56 49.04 54.44 53.64C55.64 53.44 56.66 53.28 57.5 53.16ZM48.02 64.68C49.18 62.28 50.2 59.66 51.08 56.82C42.28 58.78 34.02 62.14 26.3 66.9C18.62 71.62 12.4 77.44 7.64002 84.36C5.60002 87.24 4.58002 89.42 4.58002 90.9C4.58002 91.98 4.76002 92.88 5.12002 93.6C5.48002 94.36 5.90002 94.9 6.38002 95.22C6.86002 95.58 7.48002 95.8 8.24002 95.88C9.04002 95.96 9.76002 95.96 10.4 95.88C11.04 95.8 11.82 95.62 12.74 95.34C13.66 95.1 14.34 94.88 14.78 94.68C15.22 94.52 15.8 94.3 16.52 94.02C16.64 93.98 16.74 93.94 16.82 93.9C21.26 92.1 25.44 89.8 29.36 87C37.56 81.04 43.78 73.6 48.02 64.68ZM65.8808 55.2C67.7608 55.68 69.0808 56.84 69.8408 58.68C70.6008 60.48 70.6408 62.3 69.9608 64.14C69.3608 65.9 68.4608 67.52 67.2608 69C66.0608 70.48 64.7008 71.26 63.1808 71.34C61.6208 71.42 60.4808 70.8801 59.7608 69.72C59.0808 68.56 58.8808 67.22 59.1608 65.7C59.7208 62.58 61.3408 59.46 64.0208 56.34C64.1008 56.26 64.2008 56.18 64.3208 56.1C64.6008 55.34 65.1208 55.04 65.8808 55.2ZM61.9208 68.58C62.6808 69.26 63.8208 68.8 65.3408 67.2C67.1008 65.36 68.0408 63.44 68.1608 61.44C68.2808 59.72 67.5408 58.5 65.9408 57.78C65.6208 58.14 65.2808 58.58 64.9208 59.1C64.5608 59.58 64.1408 60.18 63.6608 60.9C63.1808 61.62 62.7608 62.34 62.4008 63.06C62.0408 63.78 61.7408 64.5 61.5008 65.22C61.2608 65.9 61.1608 66.54 61.2008 67.14C61.2808 67.74 61.5208 68.22 61.9208 68.58ZM90.3444 55.86C90.7444 55.58 91.1644 55.54 91.6044 55.74C92.0444 55.94 92.2844 56.24 92.3244 56.64C92.4044 57.04 92.2644 57.4 91.9044 57.72C88.9844 59.76 86.3244 61.74 83.9244 63.66C85.0044 64.34 85.8844 65.02 86.5644 65.7C87.2844 66.34 87.9044 67.08 88.4244 67.92C88.9844 68.76 89.1844 69.68 89.0244 70.68C88.8644 71.68 88.3644 72.68 87.5244 73.68C86.6844 74.68 85.5844 75.6001 84.2244 76.44C82.8644 77.32 81.4244 77.98 79.9044 78.42C78.4244 78.9 77.0044 78.88 75.6444 78.36C74.2844 77.84 73.3044 76.78 72.7044 75.18C71.7844 72.66 73.1244 69.76 76.7244 66.48C77.6044 65.72 78.6044 64.86 79.7244 63.9C79.6444 63.86 79.1244 63.58 78.1644 63.06C77.2044 62.54 76.5644 62.18 76.2444 61.98C75.9244 61.78 75.4044 61.44 74.6844 60.96C74.0044 60.48 73.4644 60.02 73.0644 59.58C72.6644 59.14 72.3044 58.66 71.9844 58.14C70.7444 55.98 71.4244 53.56 74.0244 50.88C76.2644 48.56 78.8444 47.06 81.7644 46.38C84.9644 45.62 86.9844 46.32 87.8244 48.48C87.9444 48.84 88.0444 49.24 88.1244 49.68C88.1644 50.16 88.0044 50.54 87.6444 50.82C87.2844 51.06 86.8844 51.12 86.4444 51C86.0044 50.84 85.7644 50.52 85.7244 50.04C85.4044 47.84 83.3844 47.86 79.6644 50.1C78.0244 51.06 76.7844 51.96 75.9444 52.8C75.2244 53.52 74.7044 54.14 74.3844 54.66C74.1044 55.18 74.0244 55.76 74.1444 56.4C74.3044 57 74.7444 57.64 75.4644 58.32C75.8244 58.64 76.2444 58.98 76.7244 59.34C77.2044 59.66 77.6044 59.92 77.9244 60.12C78.2844 60.32 78.7844 60.62 79.4244 61.02C80.1044 61.38 80.5444 61.62 80.7444 61.74C80.8644 61.78 81.0244 61.88 81.2244 62.04C81.4644 62.16 81.6444 62.24 81.7644 62.28C84.4044 60.16 87.2644 58.02 90.3444 55.86ZM84.9444 72.84C85.4644 72.28 85.8444 71.74 86.0844 71.22C86.3244 70.7001 86.4044 70.22 86.3244 69.78C86.2444 69.3 86.0844 68.86 85.8444 68.46C85.6444 68.06 85.3044 67.66 84.8244 67.26C84.3844 66.86 83.9444 66.52 83.5044 66.24C83.0644 65.92 82.5444 65.58 81.9444 65.22C80.8644 66.14 79.8444 67 78.8844 67.8C78.7244 67.9601 78.4444 68.2 78.0444 68.52C77.6844 68.84 77.3844 69.1001 77.1444 69.3C76.9044 69.5 76.6444 69.78 76.3644 70.14C76.1244 70.46 75.9244 70.78 75.7644 71.1C74.8844 73.06 74.9644 74.4601 76.0044 75.3C77.0844 76.14 78.5244 76.32 80.3244 75.84C81.8044 75.48 83.3444 74.48 84.9444 72.84ZM114.273 55.56C114.633 55.2 115.013 55.12 115.413 55.32C115.813 55.48 116.053 55.78 116.133 56.22C116.253 56.62 116.153 57.02 115.833 57.42C107.593 65.86 100.473 69.36 94.4727 67.92C92.3527 67.44 90.7527 66.5201 89.6727 65.16C88.5927 63.76 88.1727 62.22 88.4127 60.54C88.6127 58.82 89.3927 57.18 90.7527 55.62C91.8327 54.46 93.2327 53.52 94.9527 52.8C97.5127 51.76 98.7727 52.4 98.7327 54.72C98.7327 54.76 98.7327 54.8 98.7327 54.84C98.6927 56.4 97.7527 57.88 95.9127 59.28C94.0727 60.68 92.4127 61.14 90.9327 60.66C90.7727 62.46 91.5327 63.8 93.2127 64.68C94.8927 65.56 96.7327 65.82 98.7327 65.46C101.573 64.94 104.213 63.84 106.653 62.16C109.133 60.44 111.673 58.24 114.273 55.56ZM95.2527 55.2C94.6927 55.24 94.0727 55.58 93.3927 56.22C92.7527 56.86 92.1927 57.56 91.7127 58.32C92.5527 58.72 93.5727 58.24 94.7727 56.88C95.5727 55.96 95.7927 55.4 95.4327 55.2C95.3927 55.2 95.3327 55.2 95.2527 55.2ZM127.665 58.44C128.145 58.36 128.505 58.5 128.745 58.86C129.025 59.22 129.085 59.62 128.925 60.06C128.805 60.5 128.505 60.76 128.025 60.84C123.905 61.48 119.905 62.76 116.025 64.68C115.905 69.48 115.865 74.36 115.905 79.32C116.585 79.88 117.065 80.3 117.345 80.58C120.705 83.7001 122.865 88.8 123.825 95.88C124.185 98.56 124.085 101.22 123.525 103.86C122.685 107.98 120.885 108.9 118.125 106.62C117.325 105.94 116.625 105 116.025 103.8C115.465 102.64 115.025 101.48 114.705 100.32C114.425 99.16 114.185 97.74 113.985 96.06C113.825 94.38 113.725 92.98 113.685 91.86C113.645 90.78 113.605 89.4 113.565 87.72C113.525 86.08 113.505 85 113.505 84.48C113.465 83.6001 113.425 82.4201 113.385 80.94C109.305 77.86 104.505 76.58 98.9853 77.1C98.3853 77.14 97.9853 76.88 97.7853 76.32C97.5453 75.8 97.6453 75.34 98.0853 74.94C103.565 69.7401 108.745 65.82 113.625 63.18C113.865 58.1 114.225 53 114.705 47.88C114.745 47.36 114.805 46.42 114.885 45.06C115.005 43.7 115.105 42.46 115.185 41.34C115.265 40.18 115.405 38.82 115.605 37.26C115.805 35.66 116.045 34.24 116.325 33C116.605 31.76 117.005 30.52 117.525 29.28C118.045 28 118.625 26.98 119.265 26.22C119.945 25.46 120.785 24.9 121.785 24.54C122.785 24.14 123.885 24.06 125.085 24.3C125.565 24.42 125.885 24.7 126.045 25.14C126.205 25.58 126.165 25.98 125.925 26.34C125.685 26.7 125.325 26.82 124.845 26.7C123.885 26.5 122.985 26.82 122.145 27.66C121.345 28.5 120.645 29.76 120.045 31.44C119.485 33.12 118.965 35.06 118.485 37.26C118.045 39.46 117.665 41.98 117.345 44.82C117.025 47.62 116.765 50.4 116.565 53.16C116.405 55.92 116.265 58.86 116.145 61.98C119.865 60.22 123.705 59.04 127.665 58.44ZM121.725 101.76C122.045 98.2001 121.705 94.8 120.705 91.56C119.705 88.36 118.125 85.6 115.965 83.28C116.045 86.24 116.125 88.3 116.205 89.46C116.565 94.14 117.065 97.72 117.705 100.2C118.225 102.16 118.925 103.54 119.805 104.34C120.725 105.18 121.325 104.64 121.605 102.72L121.725 101.76ZM113.325 77.64C113.285 73.68 113.345 69.82 113.505 66.06C109.825 68.14 105.985 71 101.985 74.64C106.225 74.76 110.005 75.76 113.325 77.64ZM128.451 54.36C128.651 53.92 128.971 53.68 129.411 53.64C129.851 53.6 130.211 53.74 130.491 54.06C130.811 54.38 130.891 54.78 130.731 55.26C128.691 60.38 127.711 65.58 127.791 70.86C127.791 71.54 127.451 71.88 126.771 71.88C126.051 71.88 125.611 71.56 125.451 70.92C125.411 70.8 125.391 70.68 125.391 70.56C125.311 65.16 126.331 59.76 128.451 54.36ZM132.471 47.46C132.751 48.14 132.551 48.68 131.871 49.08L127.611 51.6C127.331 51.76 127.031 51.78 126.711 51.66C126.391 51.5 126.171 51.28 126.051 51C125.771 50.36 125.971 49.82 126.651 49.38L130.911 46.86C131.191 46.7 131.491 46.7 131.811 46.86C132.131 46.98 132.351 47.18 132.471 47.46ZM174.001 55.74C174.321 55.38 174.701 55.24 175.141 55.32C175.621 55.4 175.941 55.64 176.101 56.04C176.301 56.4 176.261 56.78 175.981 57.18C174.981 58.42 173.801 59.7 172.441 61.02C171.081 62.34 169.481 63.66 167.641 64.98C165.801 66.26 164.001 67.28 162.241 68.04C160.481 68.76 158.681 69.04 156.841 68.88C155.001 68.68 153.421 67.8801 152.101 66.48C151.381 65.68 150.401 64.5 149.161 62.94C147.961 61.38 147.081 60.28 146.521 59.64C146.161 59.28 145.821 59 145.501 58.8C145.181 58.56 144.901 58.4 144.661 58.32C144.421 58.24 144.161 58.26 143.881 58.38C143.601 58.5 143.361 58.62 143.161 58.74C143.001 58.82 142.781 59.02 142.501 59.34C142.221 59.66 142.021 59.92 141.901 60.12C141.781 60.32 141.561 60.66 141.241 61.14C140.921 61.58 140.701 61.88 140.581 62.04C140.381 62.36 139.841 63.38 138.961 65.1C138.121 66.78 137.241 68.22 136.321 69.42C135.441 70.58 134.601 71.22 133.801 71.34C133.321 71.42 132.941 71.28 132.661 70.92C132.381 70.52 132.181 70.1001 132.061 69.66C131.901 69.18 131.841 68.62 131.881 67.98C131.921 67.3 131.961 66.78 132.001 66.42C132.041 66.06 132.141 65.48 132.301 64.68C132.461 63.88 132.561 63.42 132.601 63.3C132.841 61.78 133.301 59.62 133.981 56.82C134.661 53.98 135.061 52.28 135.181 51.72C135.301 51.28 135.581 50.98 136.021 50.82C136.461 50.66 136.861 50.7 137.221 50.94C137.581 51.18 137.701 51.54 137.581 52.02C137.381 52.9 137.041 54.36 136.561 56.4C136.081 58.4 135.721 59.94 135.481 61.02C135.001 63.38 134.701 65.0201 134.581 65.94C134.581 66.0601 134.581 66.2401 134.581 66.48C134.901 65.8801 135.301 65.24 135.781 64.56C136.301 63.88 136.841 63.16 137.401 62.4C137.961 61.64 138.361 61.06 138.601 60.66C138.721 60.5 138.881 60.26 139.081 59.94C139.321 59.62 139.521 59.34 139.681 59.1C139.841 58.86 140.021 58.6 140.221 58.32C140.461 58 140.681 57.72 140.881 57.48C141.081 57.24 141.301 57 141.541 56.76C141.781 56.52 142.021 56.3 142.261 56.1C142.541 55.9 142.801 55.74 143.041 55.62C143.681 55.46 144.241 55.38 144.721 55.38C145.201 55.38 145.721 55.56 146.281 55.92C146.841 56.28 147.321 56.66 147.721 57.06C148.161 57.46 148.621 57.96 149.101 58.56C149.621 59.16 150.041 59.72 150.361 60.24C150.721 60.72 151.081 61.24 151.441 61.8C151.841 62.36 152.181 62.8 152.461 63.12C153.861 64.84 155.121 65.86 156.241 66.18C157.361 66.46 158.961 66.22 161.041 65.46C165.921 63.66 170.241 60.42 174.001 55.74ZM197.71 55.56C198.07 55.2 198.45 55.12 198.85 55.32C199.25 55.48 199.49 55.78 199.57 56.22C199.69 56.62 199.59 57.02 199.27 57.42C191.03 65.86 183.91 69.36 177.91 67.92C175.79 67.44 174.19 66.5201 173.11 65.16C172.03 63.76 171.61 62.22 171.85 60.54C172.05 58.82 172.83 57.18 174.19 55.62C175.27 54.46 176.67 53.52 178.39 52.8C180.95 51.76 182.21 52.4 182.17 54.72C182.17 54.76 182.17 54.8 182.17 54.84C182.13 56.4 181.19 57.88 179.35 59.28C177.51 60.68 175.85 61.14 174.37 60.66C174.21 62.46 174.97 63.8 176.65 64.68C178.33 65.56 180.17 65.82 182.17 65.46C185.01 64.94 187.65 63.84 190.09 62.16C192.57 60.44 195.11 58.24 197.71 55.56ZM178.69 55.2C178.13 55.24 177.51 55.58 176.83 56.22C176.19 56.86 175.63 57.56 175.15 58.32C175.99 58.72 177.01 58.24 178.21 56.88C179.01 55.96 179.23 55.4 178.87 55.2C178.83 55.2 178.77 55.2 178.69 55.2Z" fill="#292E36"/>
</svg>
