<svg width="25" height="24" viewBox="0 0 25 24" fill="none" xmlns="http://www.w3.org/2000/svg">
<g clip-path="url(#clip0_2_73)">
<path d="M12.3152 0C5.68691 0 0.3125 5.37201 0.3125 11.9973C0.3125 16.9087 3.2703 21.1292 7.49803 22.9877C7.46588 22.1522 7.49267 21.1453 7.70701 20.2348C7.93742 19.26 9.25021 13.6952 9.25021 13.6952C9.25021 13.6952 8.86441 12.9293 8.86441 11.7992C8.86441 10.021 9.89321 8.6927 11.1792 8.6927C12.2723 8.6927 12.7974 9.51216 12.7974 10.4923C12.7974 11.5903 12.0955 13.2292 11.7365 14.7503C11.4364 16.025 12.3741 17.0587 13.6333 17.0587C15.9053 17.0587 17.4378 14.1397 17.4378 10.6798C17.4378 8.04999 15.6641 6.08436 12.4438 6.08436C8.80547 6.08436 6.53353 8.79982 6.53353 11.8313C6.53353 12.8757 6.84431 13.6148 7.32657 14.1825C7.54626 14.445 7.57841 14.5521 7.49803 14.852C7.43909 15.0716 7.31049 15.6019 7.25155 15.8161C7.17117 16.1214 6.92469 16.2285 6.65141 16.116C4.97426 15.4305 4.19194 13.5988 4.19194 11.5314C4.19194 8.12497 7.06936 4.03838 12.7706 4.03838C17.352 4.03838 20.3688 7.35371 20.3688 10.9101C20.3688 15.6179 17.7485 19.1314 13.8905 19.1314C12.5938 19.1314 11.3775 18.4298 10.9595 17.6371C10.9595 17.6371 10.2629 20.4008 10.1129 20.9364C9.86106 21.863 9.36273 22.7842 8.90728 23.5073C10.0121 23.833 11.1579 23.999 12.3098 24C18.9381 24 24.3125 18.628 24.3125 12.0027C24.3125 5.37737 18.9434 0 12.3152 0Z" fill="white"/>
</g>
<defs>
<clipPath id="clip0_2_73">
<rect width="25" height="24" fill="white"/>
</clipPath>
</defs>
</svg>
