<svg width="26" height="21" viewBox="0 0 26 21" fill="none" xmlns="http://www.w3.org/2000/svg">
<g clip-path="url(#clip0_2_71)">
<path d="M25.4688 2.39942C24.5192 2.81199 23.5146 3.0838 22.4866 3.20626C23.567 2.57365 24.3794 1.56863 24.7716 0.379696C23.7502 0.976961 22.6346 1.39603 21.4725 1.61895C20.9832 1.10613 20.3947 0.698161 19.7428 0.419851C19.0909 0.14154 18.3892 -0.00130113 17.6804 8.93028e-06C14.8106 8.93028e-06 12.4882 2.28868 12.4882 5.10997C12.4861 5.5024 12.5311 5.89366 12.6221 6.2754C10.5643 6.17893 8.5492 5.65397 6.70585 4.73411C4.8625 3.81425 3.23145 2.51974 1.91705 0.933407C1.45593 1.71077 1.21206 2.59773 1.21094 3.50157C1.21094 5.27344 2.13537 6.83966 3.53125 7.75723C2.70423 7.73761 1.89416 7.51872 1.1698 7.11915V7.18243C1.1698 9.66094 2.96277 11.7229 5.33582 12.1922C4.88957 12.3112 4.42972 12.3714 3.96789 12.3715C3.64019 12.3721 3.31323 12.3403 2.99178 12.2766C3.65148 14.3068 5.57154 15.7834 7.84598 15.8256C5.99784 17.2499 3.7288 18.0197 1.39551 18.0141C0.981341 18.0135 0.56756 17.9888 0.15625 17.9402C2.52992 19.4559 5.28912 20.2577 8.10543 20.25C17.6693 20.25 22.8943 12.4611 22.8943 5.70587C22.8943 5.48438 22.8885 5.2629 22.8779 5.04669C23.892 4.32531 24.7694 3.42886 25.4688 2.39942Z" fill="white"/>
</g>
<defs>
<clipPath id="clip0_2_71">
<rect width="26" height="21" fill="white"/>
</clipPath>
</defs>
</svg>
